<?xml version="1.0" standalone="no"?>
<!DOCTYPE svg PUBLIC "-//W3C//DTD SVG 20010904//EN"
 "http://www.w3.org/TR/2001/REC-SVG-20010904/DTD/svg10.dtd">
<svg version="1.0" xmlns="http://www.w3.org/2000/svg"
 width="820.000000pt" height="512.000000pt" viewBox="0 0 820.000000 512.000000"
 preserveAspectRatio="xMidYMid meet">

<g transform="translate(0.000000,512.000000) scale(0.100000,-0.100000)"
fill="#000000" stroke="none">
<path d="M4040 5106 c-25 -7 -115 -45 -200 -83 -186 -85 -707 -319 -1260 -568
-223 -100 -524 -236 -669 -301 -208 -94 -271 -127 -302 -158 -109 -108 -75
-297 64 -362 l52 -24 2376 0 2375 0 52 26 c121 60 164 204 96 321 -13 23 -37
51 -53 62 -15 11 -370 174 -787 361 -417 188 -826 372 -909 410 -459 208 -714
318 -750 323 -22 3 -60 0 -85 -7z"/>
<path d="M2042 3390 c-72 -17 -107 -85 -79 -153 18 -43 60 -67 117 -67 l40 0
0 -1050 0 -1050 -43 0 c-155 0 -266 -130 -236 -277 14 -70 56 -124 120 -157
l53 -26 2085 0 c2002 0 2088 1 2126 19 84 38 135 117 135 211 0 69 -25 125
-75 168 -47 42 -75 53 -150 61 l-60 6 0 1045 0 1045 50 5 c65 7 89 21 110 67
16 33 16 41 4 77 -8 21 -27 49 -42 60 l-28 21 -2047 1 c-1126 1 -2062 -2
-2080 -6z m1246 -1272 l2 -1048 -355 0 -355 0 0 1043 c0 574 3 1047 7 1050 4
4 162 6 352 5 l346 -3 3 -1047z m1162 2 l0 -1050 -350 0 -350 0 0 1050 0 1050
350 0 350 0 0 -1050z m1160 0 l0 -1050 -350 0 -350 0 0 1050 0 1050 350 0 350
0 0 -1050z"/>
<path d="M1680 444 c-82 -36 -133 -115 -134 -209 0 -90 45 -163 129 -208 l40
-22 2375 0 c2608 0 2417 -5 2491 62 51 46 72 105 67 186 -5 77 -36 132 -100
174 l-42 28 -2395 2 c-2124 2 -2400 1 -2431 -13z"/>
</g>
</svg>
